
EnCoDer:Allycat



General

Complete name                    : Straw Dogs 2011 720p BRRip XVID AC3-TRiNiTY.avi

Format                           : AVI

Format/Info                      : Audio Video Interleave

File size                        : 1.50 GiB

Duration                         : 1h 49mn

Overall bit rate                 : 1 955 Kbps

Writing library                  : VirtualDub build 30091/release



Video

ID                               : 0

Format                           : MPEG-4 Visual

Format profile                   : Advanced Simple@L5

Format settings, BVOP            : 1

Format settings, QPel            : No

Format settings, GMC             : No warppoints

Format settings, Matrix          : Default (H.263)

Muxing mode                      : Packed bitstream

Codec ID                         : XVID

Codec ID/Hint                    : XviD

Duration                         : 1h 49mn

Bit rate                         : 1 497 Kbps

Width                            : 1 264 pixels

Height                           : 528 pixels

Display aspect ratio             : 2.35:1

Frame rate                       : 23.976 fps

Color space                      : YUV

Chroma subsampling               : 4:2:0

Bit depth                        : 8 bits

Scan type                        : Progressive

Compression mode                 : Lossy

Bits/(Pixel*Frame)               : 0.094

Stream size                      : 1.15 GiB (77%)

Writing library                  : XviD 1.2.1 (UTC 2008-12-04)



Audio

ID                               : 1

Format                           : AC-3

Format/Info                      : Audio Coding 3

Mode extension                   : CM (complete main)

Codec ID                         : 2000

Duration                         : 1h 49mn

Bit rate mode                    : Constant

Bit rate                         : 448 Kbps

Channel(s)                       : 6 channels

Channel positions                : Front: L C R, Side: L R, LFE

Sampling rate                    : 48.0 KHz

Bit depth                        : 16 bits

Compression mode                 : Lossy

Stream size                      : 352 MiB (23%)

Alignment                        : Aligned on interleaves

Interleave, duration             : 42 ms (1.00 video frame)

Interleave, preload duration     : 512 ms



SOURCE:

Straw.Dogs.2011.720p.BluRay.x264-Felony:THANKS.


 
http://www.imdb.com/title/tt0999913/



PLOT:

L.A. screenwriter David Sumner relocates with his wife to her hometown in the deep South. There, while tensions build between them, a brewing conflict with locals becomes a threat to them both.

